<svg width="138" height="68" viewBox="0 0 138 68" fill="none" xmlns="http://www.w3.org/2000/svg">
<g clip-path="url(#clip0_149515_2807)" filter="url(#filter0_d_149515_2807)">
<path d="M8.95672 0H4V35.7986H8.95672V22.5177C8.95672 20.2709 9.51557 18.4984 10.6333 17.2502C11.7509 16.002 13.2817 15.353 15.1769 15.353C16.8049 15.353 18.1655 15.9521 19.2589 17.1004C20.3523 18.2738 20.9112 19.7466 20.9112 21.5191V35.8236H25.8922V21.5191C25.8922 18.2238 24.9932 15.6276 23.1951 13.6804C21.3971 11.7332 19.0402 10.7596 16.1731 10.7596C15.347 10.7596 14.5209 10.8594 13.7191 11.0841C12.8929 11.3088 12.2369 11.5584 11.7024 11.833C11.1678 12.1076 10.6576 12.4072 10.1959 12.7567C9.73424 13.1062 9.41838 13.3558 9.27259 13.5056C9.1268 13.6554 9.00532 13.7552 8.95672 13.8301V0Z" fill="#F0145A"/>
<path d="M36.9727 0H31.8628V35.7689H36.9727V0Z" fill="white"/>
<path d="M67.1116 25.2935L67.3671 22.7386C67.3671 19.315 66.2429 16.4535 63.9435 14.1541C61.6441 11.8546 58.7825 10.7305 55.359 10.7305C51.9354 10.7305 48.9717 11.9568 46.5189 14.4096C44.0662 16.8623 42.8398 19.7749 42.8398 23.2496C42.8398 26.8265 44.1173 29.8924 46.6211 32.4473C49.1249 35.0022 52.1398 36.2797 55.6144 36.2797C56.943 36.2797 58.1694 36.0753 59.3957 35.7176C60.6221 35.3088 61.6441 34.9 62.3594 34.4912C63.1259 34.0313 63.8924 33.5204 64.5567 32.9583C65.2209 32.3962 65.6808 31.9874 65.8852 31.7319C66.0896 31.4764 66.2429 31.3231 66.3451 31.1698L63.0237 27.8484L62.2572 28.8193C61.7463 29.4325 60.8776 30.0457 59.6512 30.7099C58.3738 31.3742 57.0452 31.6808 55.6144 31.6808C53.6216 31.6808 51.9354 31.0676 50.5046 29.7902C49.0738 28.5127 48.2052 27.0309 47.9497 25.2935H67.1116ZM55.359 15.0738C57.2496 15.0738 58.7825 15.6359 60.06 16.709C61.2864 17.8331 62.0528 19.2128 62.3594 20.9501H48.1541C48.614 19.2128 49.4315 17.8331 50.709 16.709C51.9354 15.6359 53.5194 15.0738 55.359 15.0738Z" fill="white"/>
<path d="M90.943 34.2868C90.943 36.5351 90.2787 38.3747 88.8991 39.8054C87.5705 41.1851 85.8843 41.9005 83.7892 41.9005C82.8695 41.9005 81.9497 41.7472 81.081 41.4917C80.2124 41.2362 79.5481 40.9296 78.986 40.5719C78.4239 40.2142 77.9129 39.8565 77.4019 39.3967C76.9421 38.9368 76.6355 38.6302 76.4822 38.4769C76.3289 38.3236 76.2267 38.1703 76.1245 38.0681L72.8031 41.3895L73.2119 41.9005C73.4674 42.2582 73.9273 42.718 74.5404 43.229C75.1536 43.6889 75.869 44.1999 76.6866 44.7109C77.5041 45.1708 78.5261 45.5796 79.8036 45.9372C81.081 46.2949 82.4096 46.4993 83.7892 46.4993C87.2639 46.4993 90.1254 45.3241 92.5271 42.9735C94.8776 40.5719 96.0528 37.7104 96.0528 34.2357V11.2415H90.943V13.7964L90.0743 13.0299C89.5123 12.5189 88.6436 12.0079 87.4172 11.4969C86.1909 10.986 84.8623 10.7305 83.5338 10.7305C80.4168 10.7305 77.7596 11.9057 75.4602 14.3074C73.1608 16.709 72.0366 19.5705 72.0366 22.9941C72.0366 26.4177 73.1608 29.2792 75.4602 31.6808C77.7596 34.0824 80.4168 35.2577 83.5338 35.2577C84.4024 35.2577 85.22 35.1555 86.0887 34.9511C86.9062 34.6956 87.5705 34.4401 88.1326 34.1846C88.6947 33.9291 89.2057 33.6225 89.6656 33.2648C90.1254 32.9072 90.4831 32.6517 90.5853 32.5495L90.943 32.1918V34.2868ZM77.1465 22.9941C77.1465 20.8479 77.8107 19.0595 79.1904 17.5777C80.57 16.0958 82.2052 15.3293 84.0447 15.3293C85.8843 15.3293 87.5194 16.0958 88.8991 17.5777C90.2276 19.0595 90.943 20.8479 90.943 22.9941C90.943 25.1402 90.2276 26.9287 88.8991 28.4105C87.5194 29.8924 85.8843 30.6588 84.0447 30.6588C82.2052 30.6588 80.57 29.8924 79.1904 28.4105C77.8107 26.9287 77.1465 25.1402 77.1465 22.9941Z" fill="white"/>
<path d="M122.724 35.7687V19.9282C122.724 17.3222 121.753 15.1249 119.862 13.3876C117.972 11.5991 115.519 10.7305 112.504 10.7305C111.329 10.7305 110.154 10.8838 109.03 11.1904C107.905 11.548 106.986 11.9057 106.321 12.3145C105.657 12.7233 104.993 13.1832 104.38 13.7453C103.766 14.2563 103.409 14.6139 103.204 14.8183C103.051 15.0227 102.898 15.176 102.796 15.3293L106.117 18.6507L106.781 17.782C107.19 17.22 107.905 16.709 108.978 16.1469C110.051 15.5848 111.227 15.3293 112.504 15.3293C113.986 15.3293 115.212 15.7892 116.183 16.6579C117.154 17.5266 117.614 18.6507 117.614 19.9282L108.672 21.4611C106.475 21.8188 104.686 22.6875 103.46 24.0672C102.182 25.4468 101.518 27.1331 101.518 29.1259C101.518 31.0165 102.336 32.6517 103.971 34.0824C105.657 35.5643 107.701 36.2797 110.205 36.2797C111.073 36.2797 111.891 36.1775 112.709 35.922C113.577 35.7176 114.242 35.4621 114.804 35.2066C115.366 34.9511 115.877 34.6445 116.337 34.2868C116.796 33.9291 117.103 33.6736 117.307 33.5715C117.461 33.4182 117.563 33.2649 117.614 33.2138V35.7687H122.724ZM110.971 31.6808C109.643 31.6808 108.57 31.3742 107.803 30.761C106.986 30.1479 106.628 29.4325 106.628 28.6149C106.628 27.7462 106.883 26.9798 107.445 26.4177C108.008 25.8556 108.774 25.4468 109.694 25.2935L117.614 24.0161V24.527C117.614 26.8265 117.052 28.5638 115.877 29.8413C114.701 31.0676 113.066 31.6808 110.971 31.6808Z" fill="white"/>
<path d="M134 0H128.89V35.7689H134V0Z" fill="white"/>
<path d="M4 53.1185H5.59915V58.7253H9.06396V60.0283H4V53.1185Z" fill="white"/>
<path d="M19.5016 58.5477H16.2934L15.6814 60.0283H14.0428L17.1226 53.1185H18.702L21.7917 60.0283H20.1136L19.5016 58.5477ZM18.9982 57.3335L17.9025 54.688L16.8067 57.3335H18.9982Z" fill="white"/>
<path d="M37.5121 53.1185L35.2516 60.0283H33.534L32.0138 55.3494L30.4443 60.0283H28.7366L26.4662 53.1185H28.1245L29.6842 57.9751L31.313 53.1185H32.7937L34.3731 58.0146L35.9821 53.1185H37.5121Z" fill="white"/>
<path d="M54.5232 60.1468C53.819 60.1468 53.1807 59.9954 52.6082 59.6927C52.0422 59.3834 51.5947 58.959 51.2657 58.4193C50.9432 57.8731 50.782 57.2578 50.782 56.5734C50.782 55.889 50.9432 55.277 51.2657 54.7373C51.5947 54.1911 52.0422 53.7667 52.6082 53.464C53.1807 53.1547 53.8223 53 54.5331 53C55.1319 53 55.6716 53.1053 56.152 53.3159C56.6389 53.5265 57.047 53.8292 57.376 54.224L56.3494 55.1717C55.8821 54.6321 55.303 54.3622 54.612 54.3622C54.1843 54.3622 53.8026 54.4577 53.467 54.6485C53.1313 54.8328 52.8681 55.0927 52.6773 55.4283C52.493 55.764 52.4009 56.1456 52.4009 56.5734C52.4009 57.0012 52.493 57.3828 52.6773 57.7185C52.8681 58.0541 53.1313 58.3173 53.467 58.5082C53.8026 58.6924 54.1843 58.7846 54.612 58.7846C55.303 58.7846 55.8821 58.5115 56.3494 57.9653L57.376 58.9129C57.047 59.3143 56.6389 59.6203 56.152 59.8309C55.665 60.0415 55.1221 60.1468 54.5232 60.1468Z" fill="white"/>
<path d="M66.5933 60.1468C65.876 60.1468 65.2278 59.9922 64.6487 59.6829C64.0761 59.3736 63.6253 58.9491 63.2963 58.4095C62.9738 57.8632 62.8126 57.2512 62.8126 56.5734C62.8126 55.8956 62.9738 55.2868 63.2963 54.7472C63.6253 54.201 64.0761 53.7733 64.6487 53.464C65.2278 53.1547 65.876 53 66.5933 53C67.3106 53 67.9555 53.1547 68.5281 53.464C69.1006 53.7733 69.5514 54.201 69.8804 54.7472C70.2095 55.2868 70.374 55.8956 70.374 56.5734C70.374 57.2512 70.2095 57.8632 69.8804 58.4095C69.5514 58.9491 69.1006 59.3736 68.5281 59.6829C67.9555 59.9922 67.3106 60.1468 66.5933 60.1468ZM66.5933 58.7846C67.0013 58.7846 67.3698 58.6924 67.6989 58.5082C68.0279 58.3173 68.2846 58.0541 68.4688 57.7185C68.6597 57.3828 68.7551 57.0012 68.7551 56.5734C68.7551 56.1456 68.6597 55.764 68.4688 55.4283C68.2846 55.0927 68.0279 54.8328 67.6989 54.6485C67.3698 54.4577 67.0013 54.3622 66.5933 54.3622C66.1853 54.3622 65.8168 54.4577 65.4877 54.6485C65.1587 54.8328 64.8987 55.0927 64.7079 55.4283C64.5236 55.764 64.4315 56.1456 64.4315 56.5734C64.4315 57.0012 64.5236 57.3828 64.7079 57.7185C64.8987 58.0541 65.1587 58.3173 65.4877 58.5082C65.8168 58.6924 66.1853 58.7846 66.5933 58.7846Z" fill="white"/>
<path d="M82.7995 60.0283L82.7896 55.8824L80.7561 59.2979H80.0355L78.0119 55.9713V60.0283H76.5115V53.1185H77.8342L80.4205 57.4125L82.9673 53.1185H84.2802L84.2999 60.0283H82.7995Z" fill="white"/>
<path d="M93.8659 53.1185C94.478 53.1185 95.0077 53.2205 95.4552 53.4245C95.9093 53.6285 96.2581 53.918 96.5016 54.2931C96.7451 54.6682 96.8668 55.1125 96.8668 55.6258C96.8668 56.1325 96.7451 56.5767 96.5016 56.9584C96.2581 57.3335 95.9093 57.623 95.4552 57.8271C95.0077 58.0245 94.478 58.1232 93.8659 58.1232H92.4741V60.0283H90.8749V53.1185H93.8659ZM93.7771 56.8202C94.2575 56.8202 94.6227 56.7182 94.8728 56.5142C95.1229 56.3036 95.2479 56.0074 95.2479 55.6258C95.2479 55.2375 95.1229 54.9414 94.8728 54.7373C94.6227 54.5268 94.2575 54.4215 93.7771 54.4215H92.4741V56.8202H93.7771Z" fill="white"/>
<path d="M107.148 58.5477H103.94L103.328 60.0283H101.689L104.769 53.1185H106.348L109.438 60.0283H107.76L107.148 58.5477ZM106.644 57.3335L105.549 54.688L104.453 57.3335H106.644Z" fill="white"/>
<path d="M121.428 53.1185V60.0283H120.115L116.67 55.8331V60.0283H115.09V53.1185H116.413L119.848 57.3137V53.1185H121.428Z" fill="white"/>
<path d="M131.315 57.5803V60.0283H129.716V57.5605L127.041 53.1185H128.739L130.585 56.1884L132.43 53.1185H134L131.315 57.5803Z" fill="white"/>
</g>
<defs>
<filter id="filter0_d_149515_2807" x="0" y="0" width="138" height="68" filterUnits="userSpaceOnUse" color-interpolation-filters="sRGB">
<feFlood flood-opacity="0" result="BackgroundImageFix"/>
<feColorMatrix in="SourceAlpha" type="matrix" values="0 0 0 0 0 0 0 0 0 0 0 0 0 0 0 0 0 0 127 0" result="hardAlpha"/>
<feOffset dy="4"/>
<feGaussianBlur stdDeviation="2"/>
<feComposite in2="hardAlpha" operator="out"/>
<feColorMatrix type="matrix" values="0 0 0 0 0 0 0 0 0 0 0 0 0 0 0 0 0 0 0.25 0"/>
<feBlend mode="normal" in2="BackgroundImageFix" result="effect1_dropShadow_149515_2807"/>
<feBlend mode="normal" in="SourceGraphic" in2="effect1_dropShadow_149515_2807" result="shape"/>
</filter>
<clipPath id="clip0_149515_2807">
<rect width="130" height="60" fill="white" transform="translate(4)"/>
</clipPath>
</defs>
</svg>
