<svg viewBox="0 0 697 799" xmlns="http://www.w3.org/2000/svg" xmlns:xlink="http://www.w3.org/1999/xlink"><style>:root&gt;svg{display:none}:root&gt;svg:target{display:block}</style><svg fill="none" viewBox="0 0 32 32" id="clients-about" xmlns="http://www.w3.org/2000/svg"><path d="M17.232 18.332v-.558a1.232 1.232 0 10-2.463 0v.558a1.232 1.232 0 102.463 0z" fill="#F0145A"/><path d="M18.077 19.014A2.177 2.177 0 0116 20.564a2.177 2.177 0 01-2.076-1.55H5.439a3.47 3.47 0 01-1.496-.34v5.633c0 1.1.9 2 2 2h20.113c1.1 0 2-.9 2-2v-5.633a3.47 3.47 0 01-1.495.34h-8.484zm8.4-10.116h-4.8a3.809 3.809 0 00-3.754-3.204h-3.846a3.81 3.81 0 00-3.755 3.204h-4.8c-1.146 0-2.083.9-2.083 2v4.616a2 2 0 002 2h8.39a2.171 2.171 0 01.666-1.466c.012-.012.026-.02.039-.032.086-.08.176-.154.274-.22.036-.023.075-.039.112-.06.081-.046.161-.095.248-.13.069-.03.143-.046.215-.067.062-.019.121-.043.186-.056a2.155 2.155 0 01.862 0c.064.013.123.037.185.056.073.021.146.038.215.067.087.036.166.084.247.13.038.022.078.038.113.061.099.065.188.14.274.22.013.01.027.02.04.032.39.374.637.89.666 1.466h8.39a2 2 0 002-2V10.9c0-1.101-.938-2.001-2.084-2.001zm-14.229 0a1.93 1.93 0 011.829-1.332h3.846a1.93 1.93 0 011.829 1.332h-7.504z" fill="#F0145A"/></svg><svg fill="none" viewBox="0 0 93 92" id="corporate-icon" xmlns="http://www.w3.org/2000/svg"><rect x=".667" width="92" height="92" rx="24" fill="#fff"/><g clip-path="url(#ba)"><path d="M75.193 51.727a5.595 5.595 0 00-2.15-.429 5.61 5.61 0 00-4.187 1.863l-1.22-.505-3.48-1.441c.494-1.653.76-3.404.76-5.215 0-1.812-.266-3.562-.76-5.215l3.48-1.441 1.22-.506a5.61 5.61 0 004.186 1.863 5.631 5.631 0 005.195-7.779 5.61 5.61 0 00-5.198-3.473 5.634 5.634 0 00-5.615 5.923l-1.227.508-3.479 1.441a18.381 18.381 0 00-7.373-7.373l1.441-3.479.508-1.225a5.61 5.61 0 005.494-3.465A5.632 5.632 0 0057.593 14a5.61 5.61 0 00-5.199 3.473 5.634 5.634 0 001.436 6.334l-.507 1.223-1.441 3.48a18.197 18.197 0 00-5.215-.76c-1.812 0-3.562.267-5.215.76l-1.441-3.48-.507-1.223a5.634 5.634 0 001.435-6.334A5.61 5.61 0 0035.741 14a5.631 5.631 0 00-5.195 7.779 5.61 5.61 0 005.494 3.465l.508 1.226 1.44 3.479a18.38 18.38 0 00-7.372 7.373l-3.48-1.441-1.227-.508a5.634 5.634 0 00-3.463-5.494 5.595 5.595 0 00-2.151-.43 5.61 5.61 0 00-5.199 3.474 5.632 5.632 0 005.196 7.779 5.61 5.61 0 004.185-1.864l1.22.506 3.48 1.441a18.19 18.19 0 00-.76 5.215c0 1.812.267 3.562.76 5.215l-3.48 1.441-1.22.505a5.61 5.61 0 00-4.186-1.863 5.632 5.632 0 00-5.195 7.779 5.61 5.61 0 005.199 3.473c.74 0 1.463-.144 2.15-.429a5.634 5.634 0 003.464-5.494l1.227-.508 3.48-1.44a18.382 18.382 0 007.373 7.372l-1.441 3.48-.508 1.225a5.61 5.61 0 00-5.494 3.465A5.632 5.632 0 0035.74 78a5.61 5.61 0 005.198-3.474 5.634 5.634 0 00-1.435-6.333l.506-1.223 1.442-3.48c1.653.493 3.403.76 5.215.76 1.811 0 3.561-.267 5.215-.76l1.441 3.48.507 1.223a5.634 5.634 0 00-1.436 6.334A5.61 5.61 0 0057.592 78a5.631 5.631 0 005.195-7.779 5.61 5.61 0 00-5.494-3.465l-.507-1.226-1.441-3.479a18.381 18.381 0 007.373-7.373l3.479 1.441 1.227.508a5.634 5.634 0 003.464 5.494c.687.285 1.41.43 2.15.43a5.61 5.61 0 005.2-3.474 5.631 5.631 0 00-3.045-7.35zM46.667 60.5c-7.995 0-14.5-6.505-14.5-14.5s6.505-14.5 14.5-14.5 14.5 6.505 14.5 14.5-6.505 14.5-14.5 14.5z" fill="#000"/><path d="M75.193 51.727a5.595 5.595 0 00-2.15-.429 5.61 5.61 0 00-4.187 1.863l-1.22-.505-3.48-1.441c.494-1.653.76-3.404.76-5.215 0-1.812-.266-3.562-.76-5.215l3.48-1.441 1.22-.506a5.61 5.61 0 004.186 1.863 5.631 5.631 0 005.195-7.779 5.61 5.61 0 00-5.198-3.473 5.634 5.634 0 00-5.615 5.923l-1.227.508-3.479 1.441a18.381 18.381 0 00-7.373-7.373l1.441-3.479.508-1.225a5.61 5.61 0 005.494-3.465A5.632 5.632 0 0057.593 14a5.61 5.61 0 00-5.199 3.473 5.634 5.634 0 001.436 6.334l-.507 1.223-1.441 3.48a18.197 18.197 0 00-5.215-.76c-1.812 0-3.562.267-5.215.76l-1.441-3.48-.507-1.223a5.634 5.634 0 001.435-6.334A5.61 5.61 0 0035.741 14a5.631 5.631 0 00-5.195 7.779 5.61 5.61 0 005.494 3.465l.508 1.226 1.44 3.479a18.38 18.38 0 00-7.372 7.373l-3.48-1.441-1.227-.508a5.634 5.634 0 00-3.463-5.494 5.595 5.595 0 00-2.151-.43 5.61 5.61 0 00-5.199 3.474 5.632 5.632 0 005.196 7.779 5.61 5.61 0 004.185-1.864l1.22.506 3.48 1.441a18.19 18.19 0 00-.76 5.215c0 1.812.267 3.562.76 5.215l-3.48 1.441-1.22.505a5.61 5.61 0 00-4.186-1.863 5.632 5.632 0 00-5.195 7.779 5.61 5.61 0 005.199 3.473c.74 0 1.463-.144 2.15-.429a5.634 5.634 0 003.464-5.494l1.227-.508 3.48-1.44a18.382 18.382 0 007.373 7.372l-1.441 3.48-.508 1.225a5.61 5.61 0 00-5.494 3.465A5.632 5.632 0 0035.74 78a5.61 5.61 0 005.198-3.474 5.634 5.634 0 00-1.435-6.333l.506-1.223 1.442-3.48c1.653.493 3.403.76 5.215.76 1.811 0 3.561-.267 5.215-.76l1.441 3.48.507 1.223a5.634 5.634 0 00-1.436 6.334A5.61 5.61 0 0057.592 78a5.631 5.631 0 005.195-7.779 5.61 5.61 0 00-5.494-3.465l-.507-1.226-1.441-3.479a18.381 18.381 0 007.373-7.373l3.479 1.441 1.227.508a5.634 5.634 0 003.464 5.494c.687.285 1.41.43 2.15.43a5.61 5.61 0 005.2-3.474 5.631 5.631 0 00-3.045-7.35zM46.667 60.5c-7.995 0-14.5-6.505-14.5-14.5s6.505-14.5 14.5-14.5 14.5 6.505 14.5 14.5-6.505 14.5-14.5 14.5z" fill="url(#bb)"/><path d="M46.667 35.25c-5.928 0-10.75 4.822-10.75 10.75s4.822 10.75 10.75 10.75c5.927 0 10.75-4.822 10.75-10.75s-4.823-10.75-10.75-10.75zm1.875 14.875h-3.75v-8.25h3.75v8.25z" fill="#000"/><path d="M46.667 35.25c-5.928 0-10.75 4.822-10.75 10.75s4.822 10.75 10.75 10.75c5.927 0 10.75-4.822 10.75-10.75s-4.823-10.75-10.75-10.75zm1.875 14.875h-3.75v-8.25h3.75v8.25z" fill="url(#bc)"/></g><defs><linearGradient id="bb" x1="46.667" y1="14" x2="46.667" y2="78" gradientUnits="userSpaceOnUse"><stop stop-color="#EF8080"/><stop offset="1" stop-color="#F0145A"/></linearGradient><linearGradient id="bc" x1="46.667" y1="35.25" x2="46.667" y2="56.75" gradientUnits="userSpaceOnUse"><stop stop-color="#EF8080"/><stop offset="1" stop-color="#F0145A"/></linearGradient><clipPath id="ba"><path fill="#fff" transform="translate(14.667 14)" d="M0 0h64v64H0z"/></clipPath></defs></svg><svg fill="none" viewBox="0 0 93 92" id="court-icon" xmlns="http://www.w3.org/2000/svg"><rect x=".667" width="92" height="92" rx="24" fill="#fff"/><path d="M55.019 34.389a1.872 1.872 0 002.65 0l2.608-2.608a1.878 1.878 0 000-2.651l-6.583-6.581a1.871 1.871 0 00-2.648 0l-2.61 2.608a1.875 1.875 0 000 2.648l6.583 6.584z" fill="url(#ca)"/><path d="M39.433 50.265a1.876 1.876 0 002.648 0l2.609-2.61a1.872 1.872 0 000-2.649l-6.583-6.583a1.874 1.874 0 00-2.65 0l-2.607 2.608a1.875 1.875 0 000 2.65l6.583 6.584z" fill="url(#cb)"/><path d="M69.315 50.891l-2.647-2.65a1.875 1.875 0 00-2.648 0l-1.161 1.16-11.205-11.207 2.427-2.428-6.733-6.73-2.428 2.427-3.092 3.09-2.374 2.374 6.732 6.733 2.377-2.373 11.203 11.205-1.048 1.05a1.87 1.87 0 000 2.647l2.647 2.648a1.87 1.87 0 002.65 0l5.299-5.297a1.871 1.871 0 000-2.649z" fill="url(#cc)"/><path d="M49.744 58.943a2.173 2.173 0 00-2.173-2.173H30.603c-1.2 0-2.173.973-2.173 2.172v3.527h-4.763v7.39h30.558v-7.39h-4.481v-3.526z" fill="url(#cd)"/><defs><linearGradient id="ca" x1="54.357" y1="22" x2="54.357" y2="34.939" gradientUnits="userSpaceOnUse"><stop stop-color="#EF8080"/><stop offset="1" stop-color="#F0145A"/></linearGradient><linearGradient id="cb" x1="38.77" y1="37.875" x2="38.77" y2="50.812" gradientUnits="userSpaceOnUse"><stop stop-color="#EF8080"/><stop offset="1" stop-color="#F0145A"/></linearGradient><linearGradient id="cc" x1="54.659" y1="29.035" x2="54.659" y2="59.388" gradientUnits="userSpaceOnUse"><stop stop-color="#EF8080"/><stop offset="1" stop-color="#F0145A"/></linearGradient><linearGradient id="cd" x1="38.946" y1="56.77" x2="38.946" y2="69.859" gradientUnits="userSpaceOnUse"><stop stop-color="#EF8080"/><stop offset="1" stop-color="#F0145A"/></linearGradient></defs></svg><svg fill="none" viewBox="0 0 92 92" id="ecommerce-icon" xmlns="http://www.w3.org/2000/svg"><rect width="92" height="92" rx="24" fill="#fff"/><path d="M37.734 42.125a2 2 0 002-2v-7.8A6.332 6.332 0 0146.058 26a6.333 6.333 0 016.325 6.325v7.8a2 2 0 004 0v-7.8C56.383 26.632 51.752 22 46.058 22c-5.692 0-10.324 4.632-10.324 10.325v7.8a2 2 0 002 2z" fill="url(#da)"/><path d="M69 37.633H58.384v2.494c0 2.206-1.794 4-4 4s-4-1.794-4-4v-2.494h-8.649v2.494c0 2.206-1.794 4-4 4s-4-1.794-4-4v-2.494H23c-.552 0-.893.435-.762.97l6.998 28.498C29.658 68.703 31.344 70 33 70h26c1.658 0 3.342-1.298 3.766-2.9l6.996-28.497c.131-.537-.209-.971-.762-.971z" fill="url(#db)"/><path d="M42.6 48.4a1.4 1.4 0 112.8 0v6.95V54a1.4 1.4 0 112.8 0v1.676c.013-.762.635-2.376 1.4-2.376a1.4 1.4 0 011.4 1.4s.041 1.041.133 1.103C51.357 55.33 51.84 54 52.4 54a1.4 1.4 0 011.4 1.4v7a2.8 2.8 0 01-2.8 2.8h-4.68a5.6 5.6 0 01-3.96-1.64l-2.21-2.21L37 59.94c.005-1.337 1.053-1.74 2.1-1.74.902 0 1.714.14 3.5 1.05V48.4z" fill="#fff"/><defs><linearGradient id="da" x1="46.058" y1="22" x2="46.058" y2="42.125" gradientUnits="userSpaceOnUse"><stop stop-color="#EF8080"/><stop offset="1" stop-color="#F0145A"/></linearGradient><linearGradient id="db" x1="46" y1="37.633" x2="46" y2="70.002" gradientUnits="userSpaceOnUse"><stop stop-color="#EF8080"/><stop offset="1" stop-color="#F0145A"/></linearGradient></defs></svg><svg fill="none" viewBox="0 0 32 32" id="experience-about" xmlns="http://www.w3.org/2000/svg"><path d="M27.113 6.305a.82.82 0 00-.598-.252c-.114 0-.355.094-.723.28-.367.185-.757.392-1.168.623a8.41 8.41 0 01-1.46.624c-.562.185-1.082.28-1.56.28-.442 0-.832-.085-1.168-.253-1.114-.522-2.084-.912-2.907-1.169a8.879 8.879 0 00-2.655-.385c-1.636 0-3.5.532-5.589 1.594-.431.215-.74.381-.94.503l-.199-1.455a2.11 2.11 0 00.738-1.598 2.124 2.124 0 10-4.248 0c0 .766.409 1.431 1.016 1.805l2.87 21.045a1.25 1.25 0 002.476-.337l-1.153-8.46c2.093-1.038 3.903-1.562 5.426-1.562a6.22 6.22 0 011.892.292c.615.195 1.127.407 1.534.637.407.23.887.443 1.44.637.553.195 1.1.292 1.639.292 1.363 0 2.995-.513 4.898-1.54.239-.124.414-.246.524-.365.111-.12.166-.29.166-.51V6.901a.82.82 0 00-.25-.597z" fill="#F0145A"/></svg><svg fill="none" viewBox="0 0 24 25" id="facebook-header" xmlns="http://www.w3.org/2000/svg"><g clip-path="url(#fa)"><path d="M24 12.573C24 5.905 18.627.5 12 .5S0 5.905 0 12.573C0 18.6 4.388 23.594 10.125 24.5v-8.437H7.078v-3.49h3.047v-2.66c0-3.025 1.791-4.697 4.533-4.697 1.313 0 2.686.236 2.686.236v2.971H15.83c-1.491 0-1.956.93-1.956 1.886v2.264h3.328l-.532 3.49h-2.796V24.5C19.612 23.594 24 18.6 24 12.573z" fill="#fff"/></g><defs><clipPath id="fa"><path fill="#fff" transform="translate(0 .5)" d="M0 0h24v24H0z"/></clipPath></defs></svg><svg fill="none" viewBox="0 0 24 24" id="facebook-publication-icon" xmlns="http://www.w3.org/2000/svg"><g clip-path="url(#ga)"><path d="M22.675 0H1.325C.593 0 0 .593 0 1.325v21.35C0 23.407.593 24 1.325 24h11.494v-9.294H9.69v-3.621h3.129V8.41c0-3.099 1.893-4.784 4.659-4.784 1.324 0 2.463.095 2.794.14v3.24h-1.92c-1.5 0-1.792.72-1.792 1.77v2.31h3.585l-.465 3.63h-3.12V24h6.116c.732 0 1.324-.593 1.324-1.325V1.325C24 .593 23.407 0 22.675 0z" fill="#435695"/></g><defs><clipPath id="ga"><path fill="#fff" d="M0 0h24v24H0z"/></clipPath></defs></svg><svg fill="none" viewBox="0 0 24 24" id="linkedIn-publication-icon" xmlns="http://www.w3.org/2000/svg"><g clip-path="url(#ha)"><path d="M3.6 9h3.6v11.4H3.6V9zm1.8-5.7c1.2 0 2.1.9 2.1 2.1-.15 1.05-1.05 2.1-2.1 2.1-1.2 0-2.1-1.05-2.1-2.1 0-1.2.9-2.1 2.1-2.1zM9.3 9h3.45v1.5c.75-1.2 2.1-1.8 3.45-1.8 3.6 0 4.2 2.4 4.2 5.4v6.3h-3.6v-5.55c0-1.35 0-3-1.8-3s-2.1 1.5-2.1 3v5.7H9.3V9zm10.2-9h-15C1.5 0 0 1.5 0 4.5v15c0 3 1.5 4.5 4.5 4.5h15c3 0 4.5-1.5 4.5-4.5v-15c0-3-1.5-4.5-4.5-4.5z" fill="#1178B3"/></g><defs><clipPath id="ha"><path fill="#fff" d="M0 0h24v24H0z"/></clipPath></defs></svg><svg fill="none" viewBox="0 0 12 14" id="one-number" xmlns="http://www.w3.org/2000/svg"><path d="M5.802.4V13H2.886V2.74H.366V.4h5.436zm3.845 12.744c-.492 0-.906-.168-1.242-.504-.336-.336-.504-.756-.504-1.26 0-.516.168-.93.504-1.242a1.72 1.72 0 011.242-.486c.492 0 .906.162 1.242.486.336.312.504.726.504 1.242 0 .504-.168.924-.504 1.26-.336.336-.75.504-1.242.504z" fill="#F0145A"/></svg><svg fill="none" viewBox="0 0 697 799" id="primary-header-symbol" xmlns="http://www.w3.org/2000/svg"><g clip-path="url(#ja)" fill-rule="evenodd" clip-rule="evenodd"><path d="M245.112 340h186.97c53.711 0 98.536 22.912 126.408 61.63 27.85 38.72 28.709 103.326 12.468 153.868l-20.764 64.525C541.522 646.966 500.918 774.384 493 799H391s1.559 1.366 86.767-263.5c7.523-23.374 11.819-61.315 0-77.723-11.799-16.407-31.707-26.117-58.049-26.117H266.886c-30.01 0-56.603 19.518-65.887 48.345L245.112 340z" fill="url(#jb)"/><path d="M99.344 799H-.368C84.498 532.509 170.329 266.331 255.698 0h99.578a633.16 633.16 0 01-1.277 4.006C215.866 429.03 262.985 285.497 99.344 799z" fill="#F0145A"/></g><defs><linearGradient id="jb" x1="521.823" y1="798.999" x2="268.503" y2="516.696" gradientUnits="userSpaceOnUse"><stop stop-color="#F0145A"/><stop offset="1" stop-color="#693264"/></linearGradient><clipPath id="ja"><path fill="#fff" d="M0 0h697v799H0z"/></clipPath></defs></svg><svg fill="none" viewBox="0 0 138 68" id="primary-logo" xmlns="http://www.w3.org/2000/svg"><g clip-path="url(#ka)" filter="url(#kb)"><path d="M8.957 0H4v35.799h4.957V22.518c0-2.247.559-4.02 1.676-5.268 1.118-1.248 2.649-1.897 4.544-1.897 1.628 0 2.989.6 4.082 1.747 1.093 1.174 1.652 2.647 1.652 4.42v14.304h4.981V21.519c0-3.295-.899-5.891-2.697-7.839-1.798-1.947-4.155-2.92-7.022-2.92-.826 0-1.652.1-2.454.324-.826.225-1.482.474-2.017.749-.534.275-1.044.574-1.506.924-.462.35-.778.599-.923.749-.146.15-.268.25-.316.324V0z" fill="#F0145A"/><path d="M36.973 0h-5.11v35.769h5.11V0zm30.139 25.294l.255-2.555c0-3.424-1.124-6.286-3.424-8.585-2.299-2.3-5.16-3.424-8.584-3.424-3.424 0-6.387 1.227-8.84 3.68-2.453 2.452-3.68 5.365-3.68 8.84 0 3.576 1.278 6.642 3.782 9.197 2.504 2.555 5.519 3.833 8.993 3.833 1.329 0 2.555-.205 3.782-.562 1.226-.41 2.248-.818 2.963-1.227.767-.46 1.533-.97 2.198-1.533.664-.562 1.124-.97 1.328-1.226.205-.256.358-.409.46-.562l-3.321-3.322-.767.971c-.51.614-1.38 1.227-2.606 1.89-1.277.665-2.606.972-4.037.972-1.992 0-3.679-.613-5.11-1.89-1.43-1.278-2.299-2.76-2.554-4.497h19.162zm-11.753-10.22c1.89 0 3.423.562 4.701 1.635 1.226 1.124 1.993 2.504 2.3 4.241H48.153c.46-1.737 1.277-3.117 2.555-4.241 1.226-1.073 2.81-1.635 4.65-1.635zm35.584 19.213c0 2.248-.664 4.088-2.044 5.518-1.329 1.38-3.015 2.096-5.11 2.096-.92 0-1.84-.154-2.708-.41-.869-.255-1.533-.561-2.095-.92a11.553 11.553 0 01-1.584-1.174l-.92-.92c-.153-.153-.255-.307-.358-.409l-3.32 3.322.408.51c.255.358.715.818 1.328 1.329.614.46 1.329.97 2.147 1.482.817.46 1.84.869 3.117 1.226 1.277.358 2.606.562 3.985.562 3.475 0 6.336-1.175 8.738-3.526 2.35-2.401 3.526-5.263 3.526-8.737V11.242h-5.11v2.554l-.869-.766c-.562-.511-1.43-1.022-2.657-1.533a10.122 10.122 0 00-3.883-.767c-3.117 0-5.774 1.176-8.074 3.577-2.3 2.402-3.423 5.263-3.423 8.687 0 3.424 1.124 6.285 3.423 8.687 2.3 2.401 4.957 3.577 8.074 3.577.868 0 1.686-.102 2.555-.307a17.609 17.609 0 002.044-.766 7.623 7.623 0 001.533-.92c.46-.358.817-.613.92-.715l.357-.358v2.095zM77.147 22.994c0-2.146.664-3.934 2.043-5.416 1.38-1.482 3.015-2.249 4.855-2.249 1.84 0 3.474.767 4.854 2.249 1.329 1.482 2.044 3.27 2.044 5.416 0 2.146-.715 3.935-2.044 5.416-1.38 1.482-3.015 2.249-4.854 2.249-1.84 0-3.475-.767-4.855-2.248-1.38-1.482-2.043-3.27-2.043-5.417zm45.577 12.775v-15.84c0-2.607-.971-4.804-2.862-6.541-1.89-1.789-4.343-2.658-7.358-2.658-1.175 0-2.35.154-3.474.46-1.125.358-2.044.716-2.709 1.125-.664.408-1.328.868-1.941 1.43-.614.511-.971.869-1.176 1.073-.153.205-.306.358-.408.511l3.321 3.322.664-.869c.409-.562 1.124-1.073 2.197-1.635s2.249-.818 3.526-.818c1.482 0 2.708.46 3.679 1.329.971.869 1.431 1.993 1.431 3.27l-8.942 1.533c-2.197.358-3.986 1.227-5.212 2.606-1.278 1.38-1.942 3.066-1.942 5.059 0 1.89.818 3.526 2.453 4.956 1.686 1.482 3.73 2.198 6.234 2.198.868 0 1.686-.102 2.504-.358.868-.204 1.533-.46 2.095-.715a7.628 7.628 0 001.533-.92c.459-.358.766-.613.97-.715.154-.154.256-.307.307-.358v2.555h5.11zm-11.753-4.088c-1.328 0-2.401-.307-3.168-.92-.817-.613-1.175-1.328-1.175-2.146 0-.869.255-1.635.817-2.197.563-.562 1.329-.971 2.249-1.124l7.92-1.278v.511c0 2.3-.562 4.037-1.737 5.314-1.176 1.227-2.811 1.84-4.906 1.84zM134 0h-5.11v35.769H134V0zM4 53.118h1.6v5.607h3.464v1.303H4v-6.91zm15.502 5.43h-3.209l-.612 1.48h-1.638l3.08-6.91h1.579l3.09 6.91h-1.678l-.612-1.48zm-.504-1.215l-1.096-2.645-1.095 2.645h2.191zm18.514-4.215l-2.26 6.91h-1.718l-1.52-4.679-1.57 4.68h-1.707l-2.27-6.91h1.658l1.56 4.856 1.628-4.857h1.48l1.58 4.897 1.61-4.897h1.53zm17.011 7.029a4.033 4.033 0 01-1.915-.454 3.518 3.518 0 01-1.342-1.274 3.562 3.562 0 01-.484-1.846c0-.684.161-1.296.484-1.836.329-.546.776-.97 1.342-1.273.573-.31 1.214-.464 1.925-.464.599 0 1.139.105 1.619.316.487.21.895.513 1.224.908l-1.027.948c-.467-.54-1.046-.81-1.737-.81-.428 0-.81.096-1.145.286a2 2 0 00-.79.78 2.34 2.34 0 00-.276 1.145c0 .428.092.81.276 1.145.191.336.454.6.79.79a2.34 2.34 0 001.145.277c.691 0 1.27-.273 1.737-.82l1.027.948a3.2 3.2 0 01-1.224.918c-.487.21-1.03.316-1.629.316zm12.07 0a4.064 4.064 0 01-1.944-.464 3.5 3.5 0 01-1.353-1.273 3.543 3.543 0 01-.483-1.837c0-.677.16-1.286.483-1.826a3.48 3.48 0 011.353-1.283c.579-.31 1.227-.464 1.944-.464.718 0 1.362.155 1.935.464a3.476 3.476 0 011.846 3.11c0 .677-.164 1.29-.494 1.836a3.5 3.5 0 01-1.352 1.273c-.573.31-1.217.464-1.935.464zm0-1.362c.408 0 .777-.093 1.106-.277a2.02 2.02 0 00.77-.79c.19-.335.286-.717.286-1.145 0-.427-.095-.809-.286-1.145a1.951 1.951 0 00-.77-.78 2.164 2.164 0 00-1.106-.286c-.408 0-.776.096-1.105.286a2.019 2.019 0 00-.78.78 2.34 2.34 0 00-.276 1.145c0 .428.092.81.276 1.145.19.336.45.6.78.79.329.184.697.277 1.105.277zM82.8 60.028l-.01-4.146-2.034 3.416h-.72l-2.024-3.327v4.057h-1.5v-6.91h1.322l2.587 4.294 2.546-4.294h1.313l.02 6.91h-1.5zm11.066-6.91c.612 0 1.142.102 1.59.306.453.205.802.494 1.046.87.243.374.365.819.365 1.332 0 .507-.122.95-.365 1.332-.244.376-.593.665-1.047.87-.447.197-.977.295-1.59.295h-1.39v1.905h-1.6v-6.91h2.99zm-.089 3.702c.48 0 .846-.102 1.096-.306.25-.21.375-.507.375-.888 0-.389-.125-.685-.375-.889-.25-.21-.616-.316-1.096-.316h-1.303v2.4h1.303zm13.371 1.728h-3.208l-.612 1.48h-1.639l3.08-6.91h1.579l3.09 6.91h-1.678l-.612-1.48zm-.504-1.215l-1.095-2.645-1.096 2.645h2.191zm14.784-4.215v6.91h-1.313l-3.445-4.195v4.195h-1.58v-6.91h1.323l3.435 4.196v-4.196h1.58zm9.887 4.462v2.448h-1.599V57.56l-2.675-4.442h1.698l1.846 3.07 1.845-3.07H134l-2.685 4.462z" fill="#fff"/></g><defs><clipPath id="ka"><path fill="#fff" transform="translate(4)" d="M0 0h130v60H0z"/></clipPath><filter id="kb" x="0" y="0" width="138" height="68" filterUnits="userSpaceOnUse" color-interpolation-filters="sRGB"><feFlood flood-opacity="0" result="BackgroundImageFix"/><feColorMatrix in="SourceAlpha" values="0 0 0 0 0 0 0 0 0 0 0 0 0 0 0 0 0 0 127 0" result="hardAlpha"/><feOffset dy="4"/><feGaussianBlur stdDeviation="2"/><feComposite in2="hardAlpha" operator="out"/><feColorMatrix values="0 0 0 0 0 0 0 0 0 0 0 0 0 0 0 0 0 0 0.25 0"/><feBlend in2="BackgroundImageFix" result="effect1_dropShadow_149515_2807"/><feBlend in="SourceGraphic" in2="effect1_dropShadow_149515_2807" result="shape"/></filter></defs></svg><svg fill="none" viewBox="0 0 32 32" id="probono-about" xmlns="http://www.w3.org/2000/svg"><path d="M16.097 3.553c-6.845 0-12.413 5.568-12.413 12.413 0 6.845 5.568 12.414 12.413 12.414 6.845 0 12.413-5.569 12.413-12.414S22.942 3.553 16.097 3.553zm6.858 11.506l-3.593 2.6 1.384 4.23a.669.669 0 01-1.027.752l-3.622-2.62-3.621 2.62a.67.67 0 01-1.027-.752l1.385-4.23-3.594-2.6a.668.668 0 01.392-1.21h4.449l1.377-4.211a.67.67 0 011.28 0l1.377 4.21h4.449a.669.669 0 01.392 1.21z" fill="#F0145A"/></svg><svg fill="none" viewBox="0 0 93 92" id="protection-icon" xmlns="http://www.w3.org/2000/svg"><rect x=".333" width="92" height="92" rx="24" fill="#fff"/><path d="M55.565 51.696c2.352 0 4.678.588 6.726 1.701.372.2.713.44 1.062.67 3.361-6.58 5.135-13.54 5.135-20.328 0-.382 0-.776-.012-1.17a1.244 1.244 0 00-.973-1.156c-7.433-1.625-14.166-5.65-19.458-11.631l-.788-.899a1.207 1.207 0 00-.923-.418c-.381-.05-.677.135-.91.394l-1.207 1.33c-5.021 5.525-11.347 9.34-18.289 11.04l-.8.196a1.21 1.21 0 00-.935 1.157C23.75 49.886 33.965 62.33 38.37 66.883a41.698 41.698 0 003.788 3.449 14.227 14.227 0 01-.748-4.482c0-7.805 6.35-14.154 14.154-14.154z" fill="url(#ma)"/><path d="M61.116 55.56a11.654 11.654 0 00-5.551-1.404c-6.45 0-11.692 5.243-11.692 11.693 0 2.178.59 4.307 1.723 6.129 2.154 3.483 5.87 5.563 9.969 5.563 6.437 0 11.692-5.243 11.692-11.692 0-4.308-2.35-8.247-6.141-10.29zm.437 8.732l-9.145 7.116-3.122-4.883a1.23 1.23 0 112.074-1.326l1.667 2.608 7.014-5.458a1.23 1.23 0 111.512 1.943z" fill="url(#mb)"/><defs><linearGradient id="ma" x1="46.333" y1="18.457" x2="46.333" y2="70.332" gradientUnits="userSpaceOnUse"><stop stop-color="#EF8080"/><stop offset="1" stop-color="#F0145A"/></linearGradient><linearGradient id="mb" x1="55.565" y1="54.156" x2="55.565" y2="77.541" gradientUnits="userSpaceOnUse"><stop stop-color="#EF8080"/><stop offset="1" stop-color="#F0145A"/></linearGradient></defs></svg><svg fill="none" viewBox="0 0 130 60" id="secondary-header-logo" xmlns="http://www.w3.org/2000/svg"><path d="M4.957 0H0v35.799h4.957V22.518c0-2.247.559-4.02 1.676-5.268 1.118-1.248 2.649-1.897 4.544-1.897 1.628 0 2.989.6 4.082 1.747 1.093 1.174 1.652 2.647 1.652 4.42v14.304h4.981V21.519c0-3.295-.899-5.891-2.697-7.839-1.798-1.947-4.155-2.92-7.022-2.92-.826 0-1.652.1-2.454.324-.826.225-1.482.474-2.017.749-.534.275-1.044.574-1.506.924-.462.35-.778.599-.923.749-.146.15-.268.25-.316.324V0z" fill="#F0145A"/><path d="M32.973 0h-5.11v35.769h5.11V0zm30.138 25.294l.256-2.555c0-3.424-1.124-6.286-3.424-8.585-2.3-2.3-5.16-3.424-8.584-3.424-3.424 0-6.388 1.227-8.84 3.68-2.453 2.452-3.68 5.365-3.68 8.84 0 3.576 1.278 6.642 3.782 9.197 2.504 2.555 5.519 3.833 8.993 3.833 1.329 0 2.555-.205 3.782-.562 1.226-.41 2.248-.818 2.963-1.227.767-.46 1.533-.97 2.197-1.533.665-.562 1.125-.97 1.33-1.226.203-.256.357-.409.459-.562l-3.321-3.322-.767.971c-.51.614-1.38 1.227-2.606 1.89-1.277.665-2.606.972-4.037.972-1.992 0-3.679-.613-5.11-1.89-1.43-1.278-2.299-2.76-2.554-4.497h19.16zM51.36 15.074c1.89 0 3.423.562 4.7 1.635 1.227 1.124 1.994 2.504 2.3 4.241H44.154c.46-1.737 1.277-3.117 2.555-4.241 1.226-1.073 2.81-1.635 4.65-1.635zm35.583 19.213c0 2.248-.664 4.088-2.044 5.518-1.329 1.38-3.015 2.096-5.11 2.096-.92 0-1.84-.154-2.708-.41-.869-.255-1.533-.561-2.095-.92a11.553 11.553 0 01-1.584-1.174l-.92-.92c-.153-.153-.255-.307-.358-.409l-3.321 3.322.409.51c.255.358.715.818 1.328 1.329.613.46 1.329.97 2.146 1.482.818.46 1.84.869 3.117 1.226 1.278.358 2.606.562 3.986.562 3.475 0 6.336-1.175 8.738-3.526 2.35-2.401 3.526-5.263 3.526-8.737V11.242h-5.11v2.554l-.869-.766c-.562-.511-1.43-1.022-2.657-1.533a10.122 10.122 0 00-3.883-.767c-3.117 0-5.775 1.176-8.074 3.577-2.3 2.402-3.423 5.263-3.423 8.687 0 3.424 1.124 6.285 3.423 8.687 2.3 2.401 4.957 3.577 8.074 3.577.868 0 1.686-.102 2.554-.307a17.604 17.604 0 002.044-.766 7.625 7.625 0 001.533-.92c.46-.358.818-.613.92-.715l.358-.358v2.095zM73.146 22.994c0-2.146.665-3.934 2.044-5.416 1.38-1.482 3.015-2.249 4.855-2.249 1.84 0 3.474.767 4.854 2.249 1.329 1.482 2.044 3.27 2.044 5.416 0 2.146-.715 3.935-2.044 5.416-1.38 1.482-3.015 2.249-4.854 2.249-1.84 0-3.475-.767-4.855-2.248-1.38-1.482-2.044-3.27-2.044-5.417zm45.578 12.775v-15.84c0-2.607-.971-4.804-2.861-6.541-1.891-1.789-4.344-2.658-7.359-2.658-1.175 0-2.35.154-3.474.46-1.124.358-2.044.716-2.709 1.125-.664.408-1.328.868-1.941 1.43-.613.511-.971.869-1.175 1.073-.154.205-.307.358-.41.511l3.322 3.322.664-.869c.409-.562 1.125-1.073 2.198-1.635s2.248-.818 3.525-.818c1.482 0 2.709.46 3.679 1.329.971.869 1.431 1.993 1.431 3.27l-8.942 1.533c-2.197.358-3.986 1.227-5.212 2.606-1.277 1.38-1.942 3.066-1.942 5.059 0 1.89.818 3.526 2.453 4.956 1.686 1.482 3.73 2.198 6.234 2.198.869 0 1.686-.102 2.504-.358.868-.204 1.533-.46 2.095-.715a7.628 7.628 0 001.533-.92c.46-.358.766-.613.971-.715.153-.154.255-.307.306-.358v2.555h5.11zm-11.753-4.088c-1.328 0-2.401-.307-3.168-.92-.817-.613-1.175-1.328-1.175-2.146 0-.869.256-1.635.818-2.197.562-.562 1.328-.971 2.248-1.124l7.92-1.278v.511c0 2.3-.562 4.037-1.737 5.314-1.175 1.227-2.811 1.84-4.906 1.84zM130 0h-5.11v35.769H130V0zM0 53.118h1.6v5.607h3.464v1.303H0v-6.91zm15.502 5.43h-3.209l-.612 1.48h-1.638l3.08-6.91h1.579l3.09 6.91h-1.678l-.612-1.48zm-.504-1.215l-1.095-2.645-1.096 2.645h2.191zm18.514-4.215l-2.26 6.91h-1.718l-1.52-4.679-1.57 4.68h-1.707l-2.27-6.91h1.658l1.56 4.856 1.628-4.857h1.48l1.58 4.897 1.61-4.897h1.53zm17.011 7.029a4.033 4.033 0 01-1.915-.454 3.518 3.518 0 01-1.342-1.274 3.562 3.562 0 01-.484-1.846c0-.684.161-1.296.484-1.836.329-.546.776-.97 1.342-1.273.573-.31 1.214-.464 1.925-.464.599 0 1.139.105 1.619.316.487.21.895.513 1.224.908l-1.027.948c-.467-.54-1.046-.81-1.737-.81-.428 0-.81.096-1.145.286a2 2 0 00-.79.78 2.34 2.34 0 00-.276 1.145c0 .428.092.81.276 1.145.191.336.454.6.79.79a2.34 2.34 0 001.145.277c.691 0 1.27-.273 1.737-.82l1.027.948a3.2 3.2 0 01-1.224.918c-.487.21-1.03.316-1.629.316zm12.07 0a4.064 4.064 0 01-1.944-.464 3.5 3.5 0 01-1.353-1.273 3.543 3.543 0 01-.483-1.837c0-.677.16-1.286.483-1.826a3.48 3.48 0 011.353-1.283c.579-.31 1.227-.464 1.944-.464.718 0 1.362.155 1.935.464a3.476 3.476 0 011.846 3.11c0 .677-.164 1.29-.494 1.836a3.5 3.5 0 01-1.352 1.273c-.573.31-1.217.464-1.935.464zm0-1.362c.408 0 .777-.093 1.106-.277a2.02 2.02 0 00.77-.79c.19-.335.286-.717.286-1.145 0-.427-.095-.809-.286-1.145a1.951 1.951 0 00-.77-.78 2.164 2.164 0 00-1.106-.286c-.408 0-.776.096-1.105.286a2.019 2.019 0 00-.78.78 2.34 2.34 0 00-.276 1.145c0 .428.092.81.276 1.145.19.336.45.6.78.79.329.184.697.277 1.105.277zM78.8 60.028l-.01-4.146-2.034 3.416h-.72l-2.024-3.327v4.057h-1.5v-6.91h1.322l2.587 4.294 2.546-4.294h1.313l.02 6.91h-1.5zm11.066-6.91c.612 0 1.142.102 1.59.306.453.205.802.494 1.046.87.243.374.365.819.365 1.332 0 .507-.122.95-.365 1.332-.244.376-.593.665-1.047.87-.447.197-.977.295-1.59.295h-1.39v1.905h-1.6v-6.91h2.99zm-.089 3.702c.48 0 .846-.102 1.096-.306.25-.21.375-.507.375-.888 0-.389-.125-.685-.375-.889-.25-.21-.616-.316-1.096-.316h-1.303v2.4h1.303zm13.371 1.728H99.94l-.612 1.48h-1.64l3.081-6.91h1.579l3.09 6.91h-1.678l-.612-1.48zm-.504-1.215l-1.095-2.645-1.096 2.645h2.191zm14.784-4.215v6.91h-1.313l-3.445-4.195v4.195h-1.58v-6.91h1.323l3.435 4.196v-4.196h1.58zm9.887 4.462v2.448h-1.599V57.56l-2.675-4.442h1.698l1.846 3.07 1.845-3.07H130l-2.685 4.462z" fill="#323264"/></svg><svg fill="none" viewBox="0 0 93 92" id="support-icon" xmlns="http://www.w3.org/2000/svg"><rect x=".333" width="92" height="92" rx="24" fill="#fff"/><path fill-rule="evenodd" clip-rule="evenodd" d="M67.785 49.078v17.295c0 3.094-2.425 5.629-5.388 5.629H30.304c-2.964 0-5.388-2.535-5.388-5.629V49.078h16.666v7.51l4.768 3.134 4.769-3.133v-7.51h16.666z" fill="url(#oa)"/><path fill-rule="evenodd" clip-rule="evenodd" d="M43.252 49.078v6.609l3.098 2.035 3.098-2.035v-6.609h-6.196z" fill="url(#ob)"/><path fill-rule="evenodd" clip-rule="evenodd" d="M26.407 29.145h39.886c1.883 0 3.421 1.708 3.421 3.795v10.253c0 2.088-1.538 3.796-3.42 3.796H26.406c-1.883 0-3.42-1.708-3.42-3.796V32.94c0-2.087 1.538-3.795 3.42-3.795z" fill="url(#oc)"/><path fill-rule="evenodd" clip-rule="evenodd" d="M38.045 19.953h16.61a2.814 2.814 0 012.806 2.806v4.378h-3.557V24.55c0-.698-.57-1.27-1.268-1.27H40.064c-.697 0-1.267.572-1.267 1.27v2.587H35.24v-4.378a2.814 2.814 0 012.805-2.806z" fill="url(#od)"/><defs><linearGradient id="oa" x1="46.35" y1="49.078" x2="46.35" y2="72.002" gradientUnits="userSpaceOnUse"><stop stop-color="#EF8080"/><stop offset="1" stop-color="#F0145A"/></linearGradient><linearGradient id="ob" x1="46.35" y1="49.078" x2="46.35" y2="57.722" gradientUnits="userSpaceOnUse"><stop stop-color="#EF8080"/><stop offset="1" stop-color="#F0145A"/></linearGradient><linearGradient id="oc" x1="46.35" y1="29.145" x2="46.35" y2="46.989" gradientUnits="userSpaceOnUse"><stop stop-color="#EF8080"/><stop offset="1" stop-color="#F0145A"/></linearGradient><linearGradient id="od" x1="46.35" y1="19.953" x2="46.35" y2="27.137" gradientUnits="userSpaceOnUse"><stop stop-color="#EF8080"/><stop offset="1" stop-color="#F0145A"/></linearGradient></defs></svg><svg fill="none" viewBox="0 0 24 24" id="telegram-publication-icon" xmlns="http://www.w3.org/2000/svg"><path d="M9 17.941l-1.5-4.5 16.5-12L.933 10.312s-1.008.345-.929.983c.08.637.903.928.903.928l5.363 1.805 2.43 7.73 4.113-3.616-.01-.007 5.41 4.149c1.46.637 1.99-.69 1.99-.69L24 1.44 9 17.94z" fill="#3CACDC"/></svg><svg fill="none" viewBox="0 0 92 92" id="trust-icon" xmlns="http://www.w3.org/2000/svg"><rect width="92" height="92" rx="24" fill="#fff"/><path d="M56.006 70h-19v6h19v-6z" fill="#000"/><path d="M56.006 70h-19v6h19v-6z" fill="url(#qa)"/><path d="M29.173 16.452L15.738 29.887l3.535 3.535 13.435-13.435-3.535-3.535z" fill="#000"/><path d="M29.173 16.452L15.738 29.887l3.535 3.535 13.435-13.435-3.535-3.535z" fill="url(#qb)"/><path d="M63.113 16.32l-3.536 3.535 13.435 13.436 3.536-3.536L63.113 16.32z" fill="#000"/><path d="M63.113 16.32l-3.536 3.535 13.435 13.436 3.536-3.536L63.113 16.32z" fill="url(#qc)"/><path d="M58.556 23.708l-2.69-.114a5.056 5.056 0 00-4.284 1.432l-5.505 5.505-5.753-5.754a3.84 3.84 0 00-3.858-.909 3.619 3.619 0 01-3.61-.903L32 22.11 21.395 32.718l1.727 1.727-.113 2.692a5.056 5.056 0 001.431 4.283l9.613 9.612a4.985 4.985 0 011.69-3.259l-2.995-2.995.707-.707 3.129 3.129a4.95 4.95 0 011.422-.54v-3.695l-1.722-1.722.707-.707 1.015 1.015V36.2a3.61 3.61 0 013.142-3.625 3.51 3.51 0 01.991.045l-1.23-1.23.708-.707 1.796 1.796a3.542 3.542 0 013.404-1.908 3.602 3.602 0 013.174 3.332 3.558 3.558 0 011.825-.332 3.62 3.62 0 013.19 3.663v3.424a5.003 5.003 0 013.816 3.625l2.788-2.788.708.707-3.316 3.315c0 .014.004.027.004.04v3.32a3.962 3.962 0 002.379-1.128l6.84-6.84a3.84 3.84 0 00.909-3.858 3.618 3.618 0 01.903-3.611l.854-.854L60.284 21.98l-1.728 1.728z" fill="#000"/><path d="M58.556 23.708l-2.69-.114a5.056 5.056 0 00-4.284 1.432l-5.505 5.505-5.753-5.754a3.84 3.84 0 00-3.858-.909 3.619 3.619 0 01-3.61-.903L32 22.11 21.395 32.718l1.727 1.727-.113 2.692a5.056 5.056 0 001.431 4.283l9.613 9.612a4.985 4.985 0 011.69-3.259l-2.995-2.995.707-.707 3.129 3.129a4.95 4.95 0 011.422-.54v-3.695l-1.722-1.722.707-.707 1.015 1.015V36.2a3.61 3.61 0 013.142-3.625 3.51 3.51 0 01.991.045l-1.23-1.23.708-.707 1.796 1.796a3.542 3.542 0 013.404-1.908 3.602 3.602 0 013.174 3.332 3.558 3.558 0 011.825-.332 3.62 3.62 0 013.19 3.663v3.424a5.003 5.003 0 013.816 3.625l2.788-2.788.708.707-3.316 3.315c0 .014.004.027.004.04v3.32a3.962 3.962 0 002.379-1.128l6.84-6.84a3.84 3.84 0 00.909-3.858 3.618 3.618 0 01.903-3.611l.854-.854L60.284 21.98l-1.728 1.728z" fill="url(#qd)"/><path d="M43.88 35.69a2.49 2.49 0 00-2.725-2.188 2.598 2.598 0 00-2.243 2.63v11.357a4 4 0 00-4 4v9.673a3.838 3.838 0 002.086 3.37 3.618 3.618 0 011.914 3.193v1.207h15v-2.444l1.984-1.822a5.059 5.059 0 002.016-4.04V45.488a4 4 0 00-4-4v-4.323a2.622 2.622 0 00-2.276-2.668 2.492 2.492 0 00-2.682 2.1h.458V52.04h-1V36.597h.5v-2.431a2.622 2.622 0 00-2.276-2.668 2.502 2.502 0 00-2.724 2.49v1.702h.5v15.444h-1V35.69h.468zm-4.569 20.35h-1v-8h1v8zM53.413 41.8h1v10.443h-1V41.8z" fill="#000"/><path d="M43.88 35.69a2.49 2.49 0 00-2.725-2.188 2.598 2.598 0 00-2.243 2.63v11.357a4 4 0 00-4 4v9.673a3.838 3.838 0 002.086 3.37 3.618 3.618 0 011.914 3.193v1.207h15v-2.444l1.984-1.822a5.059 5.059 0 002.016-4.04V45.488a4 4 0 00-4-4v-4.323a2.622 2.622 0 00-2.276-2.668 2.492 2.492 0 00-2.682 2.1h.458V52.04h-1V36.597h.5v-2.431a2.622 2.622 0 00-2.276-2.668 2.502 2.502 0 00-2.724 2.49v1.702h.5v15.444h-1V35.69h.468zm-4.569 20.35h-1v-8h1v8zM53.413 41.8h1v10.443h-1V41.8z" fill="url(#qe)"/><defs><linearGradient id="qa" x1="46.506" y1="70" x2="46.506" y2="76" gradientUnits="userSpaceOnUse"><stop stop-color="#EF8080"/><stop offset="1" stop-color="#F0145A"/></linearGradient><linearGradient id="qb" x1="22.455" y1="23.169" x2="25.991" y2="26.705" gradientUnits="userSpaceOnUse"><stop stop-color="#EF8080"/><stop offset="1" stop-color="#F0145A"/></linearGradient><linearGradient id="qc" x1="61.345" y1="18.088" x2="74.78" y2="31.523" gradientUnits="userSpaceOnUse"><stop stop-color="#EF8080"/><stop offset="1" stop-color="#F0145A"/></linearGradient><linearGradient id="qd" x1="46.143" y1="21.98" x2="46.143" y2="51.032" gradientUnits="userSpaceOnUse"><stop stop-color="#EF8080"/><stop offset="1" stop-color="#F0145A"/></linearGradient><linearGradient id="qe" x1="46.412" y1="31.488" x2="46.412" y2="68.932" gradientUnits="userSpaceOnUse"><stop stop-color="#EF8080"/><stop offset="1" stop-color="#F0145A"/></linearGradient></defs></svg><svg fill="none" viewBox="0 0 16 14" id="two-numder" xmlns="http://www.w3.org/2000/svg"><path d="M10.612 10.624V13H1.09v-1.89l4.86-4.59c.516-.492.864-.912 1.044-1.26.18-.36.27-.714.27-1.062 0-.504-.174-.888-.522-1.152-.336-.276-.834-.414-1.494-.414a3.37 3.37 0 00-1.494.324 2.788 2.788 0 00-1.116.936L.514 2.524c.492-.732 1.17-1.302 2.034-1.71.864-.42 1.854-.63 2.97-.63.936 0 1.752.156 2.448.468.708.3 1.254.732 1.638 1.296.396.552.594 1.206.594 1.962 0 .684-.144 1.326-.432 1.926-.288.6-.846 1.284-1.674 2.052l-2.898 2.736h5.418zm3.035 2.52c-.492 0-.906-.168-1.242-.504-.336-.336-.504-.756-.504-1.26 0-.516.168-.93.504-1.242a1.72 1.72 0 011.242-.486c.492 0 .906.162 1.242.486.336.312.504.726.504 1.242 0 .504-.168.924-.504 1.26-.336.336-.75.504-1.242.504z" fill="#F0145A"/></svg></svg>